<?xml version="1.0" encoding="UTF-8" standalone="no"?>
<svg
   width="1900"
   height="115"
   viewBox="0 0 950 57.5"
   fill="none"
   version="1.1"
   id="svg18"
   sodipodi:docname="cyberpunk.svg"
   inkscape:export-filename="cyberpunk.png"
   inkscape:export-xdpi="96"
   inkscape:export-ydpi="96"
   inkscape:version="1.2.2 (b0a8486541, 2022-12-01)"
   xmlns:inkscape="http://www.inkscape.org/namespaces/inkscape"
   xmlns:sodipodi="http://sodipodi.sourceforge.net/DTD/sodipodi-0.dtd"
   xmlns:xlink="http://www.w3.org/1999/xlink"
   xmlns="http://www.w3.org/2000/svg"
   xmlns:svg="http://www.w3.org/2000/svg">
  <sodipodi:namedview
     id="namedview20"
     pagecolor="#ffffff"
     bordercolor="#000000"
     borderopacity="0.25"
     inkscape:showpageshadow="2"
     inkscape:pageopacity="0.0"
     inkscape:pagecheckerboard="0"
     inkscape:deskcolor="#d1d1d1"
     showgrid="false"
     inkscape:zoom="0.45822864"
     inkscape:cx="751.80809"
     inkscape:cy="152.76217"
     inkscape:window-width="2560"
     inkscape:window-height="1408"
     inkscape:window-x="0"
     inkscape:window-y="32"
     inkscape:window-maximized="1"
     inkscape:current-layer="svg18" />
  <rect
     style="fill:#0c0e14;fill-opacity:1;stroke-width:2.3523;stroke-linecap:round;stroke-linejoin:round"
     id="rect292"
     width="950"
     height="57.5"
     x="0"
     y="0" />
  <g
     clip-path="url(#clip0_181_364)"
     id="g4"
     transform="translate(467)">
    <path
       d="m 455.026,59.5867 -16.852,-7.9065 52.974,-114.2411 16.853,7.9065 z m 24.755,-113.9722 -15.858,-7.444 -52.514,113.2407 15.858,7.444 52.503,-113.2407 z m -28.23,0.2689 -14.874,-6.9814 -52.055,112.2403 14.874,6.9814 z m -28.23,0.269 -13.88,-6.5189 -51.595,111.2506 13.88,6.5189 z m -28.23,0.2689 -12.896,-6.0563 -51.135,110.2502 12.896,6.0563 z m -28.23,0.2689 -11.902,-5.5829 -50.665,109.2605 11.902,5.583 z m -28.231,0.2689 -10.907,-5.1204 -50.204,108.2602 10.907,5.1204 50.204,-108.2709 z m -28.23,0.269 -9.923,-4.6579 -49.745,107.2597 9.923,4.6579 49.745,-107.2812 z m -28.23,0.2689 -8.929,-4.1953 -49.285,106.2701 8.929,4.1953 49.285,-106.2916 z m -28.23,0.2689 -7.945,-3.7219 -48.825,105.2696 7.945,3.722 48.825,-105.2912 z m -28.23,0.269 -6.951,-3.2595 -48.354,104.28 6.95,3.2594 48.355,-104.3122 z m -28.23,0.2689 -5.956,-2.7969 -47.895,103.2796 5.956,2.7968 47.895,-103.3118 z m -28.23,0.2689 -4.973,-2.3343 -47.435,102.2792 4.972,2.3343 47.436,-102.3114 z m -28.23,0.269 -3.978,-1.8718 -46.9757,101.2895 3.9779,1.8717 46.9758,-101.3217 z m -28.231,0.2689 -2.983,-1.3984 -46.5049,100.289 2.9834,1.3984 46.5155,-100.332 z m -28.2297,0.2689 -1.9997,-0.9359 -46.045,99.2887 1.9996,0.9359 46.0558,-99.3317 z m -28.4654,0.7745 0.2352,-0.5056 -1.0051,-0.4733 -45.35001,97.7934 -0.23526,0.5056 1.00517,0.4733 45.3607,-97.8364 z m -27.9949,-0.2366 -0.0214,-0.0215 -45.1147,97.2985 0.0214,0.0215 45.1147,-97.3416 z"
       fill="url(#paint_linear)"
       opacity="0.9"
       id="path2"
       style="fill:url(#paint_linear)" />
  </g>
  <defs
     id="defs16">
    <linearGradient
       inkscape:collect="always"
       id="linearGradient878">
      <stop
         style="stop-color:#0c0e14;stop-opacity:1;"
         offset="0.35166994"
         id="stop874" />
      <stop
         style="stop-color:#0c0e14;stop-opacity:0;"
         offset="0.94891948"
         id="stop876" />
    </linearGradient>
    <linearGradient
       id="paint_linear"
       x1="508"
       y1="-1.48176"
       x2="-17.0371"
       y2="-1.48176"
       gradientUnits="userSpaceOnUse">
      <stop
         stop-color="#00FFD2"
         stop-opacity="0.8"
         id="stop6" />
      <stop
         offset="0.34"
         stop-color="#FCEA06"
         stop-opacity="0.5"
         id="stop8" />
      <stop
         offset="0.71"
         stop-color="#E5007D"
         stop-opacity="0.3"
         id="stop10" />
    </linearGradient>
    <clipPath
       id="clip0_181_364">
      <rect
         width="483"
         height="40"
         fill="#ffffff"
         id="rect13"
         x="0"
         y="0" />
    </clipPath>
    <linearGradient
       inkscape:collect="always"
       xlink:href="#linearGradient878"
       id="linearGradient880"
       x1="480.10968"
       y1="58.211273"
       x2="479.71075"
       y2="16.747259"
       gradientUnits="userSpaceOnUse" />
  </defs>
  <rect
     style="fill:url(#linearGradient880);fill-opacity:1;stroke-width:2.3523;stroke-linecap:round;stroke-linejoin:round"
     id="rect849"
     width="950"
     height="57.5"
     x="0"
     y="0" />
</svg>
