<svg width="483" height="40" viewBox="0 0 483 40" fill="none" xmlns="http://www.w3.org/2000/svg">
<g clip-path="url(#clip0_181_364)">
<path d="M455.026 59.5867L438.174 51.6802L491.148 -62.5609L508.001 -54.6544L455.026 59.5867ZM479.781 -54.3855L463.923 -61.8295L411.409 51.4112L427.267 58.8552L479.77 -54.3855H479.781ZM451.551 -54.1166L436.677 -61.098L384.622 51.1423L399.496 58.1237L451.551 -54.1166V-54.1166ZM423.321 -53.8476L409.441 -60.3665L357.846 50.8841L371.726 57.403L423.321 -53.8476ZM395.091 -53.5787L382.195 -59.635L331.06 50.6152L343.956 56.6715L395.091 -53.5787V-53.5787ZM366.861 -53.3098L354.959 -58.8927L304.294 50.3678L316.196 55.9508L366.861 -53.3098ZM338.63 -53.0409L327.723 -58.1613L277.519 50.0989L288.426 55.2193L338.63 -53.0516V-53.0409ZM310.4 -52.7719L300.477 -57.4298L250.732 49.8299L260.655 54.4878L310.4 -52.7934V-52.7719ZM282.17 -52.503L273.241 -56.6983L223.956 49.5718L232.885 53.7671L282.17 -52.5245V-52.503ZM253.94 -52.2341L245.995 -55.956L197.17 49.3136L205.115 53.0356L253.94 -52.2556V-52.2341ZM225.71 -51.9651L218.759 -55.2246L170.405 49.0554L177.355 52.3148L225.71 -51.9974V-51.9651ZM197.48 -51.6962L191.524 -54.4931L143.629 48.7865L149.585 51.5833L197.48 -51.7285V-51.6962ZM169.25 -51.4273L164.277 -53.7616L116.842 48.5176L121.814 50.8519L169.25 -51.4595V-51.4273ZM141.02 -51.1583L137.042 -53.0301L90.0663 48.2594L94.0442 50.1311L141.02 -51.1906V-51.1583ZM112.789 -50.8894L109.806 -52.2878L63.3011 48.0012L66.2845 49.3996L112.8 -50.9324L112.789 -50.8894ZM84.5593 -50.6205L82.5596 -51.5564L36.5146 47.7323L38.5142 48.6682L84.57 -50.6635L84.5593 -50.6205ZM56.0939 -49.846L56.3291 -50.3516L55.324 -50.8249L9.97399 46.9685L9.73873 47.4741L10.7439 47.9474L56.1046 -49.889L56.0939 -49.846ZM28.099 -50.0826L28.0776 -50.1041L-17.0371 47.1944L-17.0157 47.2159L28.099 -50.1257V-50.0826Z" fill="url(#paint_linear)" opacity="0.9"/>
</g>
<defs>
<linearGradient id="paint_linear" x1="508" y1="-1.48176" x2="-17.0371" y2="-1.48176" gradientUnits="userSpaceOnUse">
<stop stop-color="#00FFD2" stop-opacity="0.8"/>
<stop offset="0.34" stop-color="#FCEA06" stop-opacity="0.5"/>
<stop offset="0.71" stop-color="#E5007D" stop-opacity="0.3"/>
</linearGradient>
<clipPath id="clip0_181_364">
<rect width="483" height="40" fill="white"/>
</clipPath>
</defs>
</svg>
